# xmcd
#
# Track frame offsets:
#	150
#	12623
#	25176
#	38815
#	56460
#	70498
#	82586
#	93720
#	109223
#	127700
#	146503
#	160574
#	174487
#	185491
#	198247
#	211831
#
# Disc length: 3036 seconds
#
# Revision: 1
# Processed by: cddbd v1.5.2PL0 Copyright (c) Steve Scherf et al.
# Submitted via: audiograbber 1.83.01
#
DISCID=ce0bda10
DTITLE=Various Artist - Volksmusik Party Hits 1/3
DYEAR=1900
DGENRE=
TTITLE0=Rock me - Alpenrebellen
TTITLE1=Bombig, bärig, richtig fesch - Florian Fesl
TTITLE2=Don Camillo und Peppone - Ursprung Buam
TTITLE3=Bergbauernbuam - Joe Williams Band
TTITLE4=Hallo Kraxelhuaba - Bartel Gensbichler
TTITLE5=Dei Herzl für mei Geig'n - Die fetzig'n Zillertaler
TTITLE6=Heyoheyoho - Zillertaler Haderlumpen
TTITLE7=DJ aus den Bergen - DJ Kavon
TTITLE8=A Wahnsinnsparty - Die Edlseer
TTITLE9=Der Gogola ( Her mit meine Hennen) - Mönchdorfer Buam
TTITLE10=Drei Tage gemma nimma hoam - Die Dorfer
TTITLE11=Auf der Brugg trara - Die 3 Z'wildern
TTITLE12=Steirerman san very good - Kärntner Spatzen
TTITLE13=Rehragout - Joe Williams Band
TTITLE14=Hey Madl - Zillertal Power
TTITLE15=Dem Land Tirol die Treue - Die Grubertaler
EXTD=
EXTT0=
EXTT1=
EXTT2=
EXTT3=
EXTT4=
EXTT5=
EXTT6=
EXTT7=
EXTT8=
EXTT9=
EXTT10=
EXTT11=
EXTT12=
EXTT13=
EXTT14=
EXTT15=
PLAYORDER=
